<svg id="SvgjsSvg15919" width="550" height="345" xmlns="http://www.w3.org/2000/svg" version="1.1" xmlns:xlink="http://www.w3.org/1999/xlink" xmlns:svgjs="http://svgjs.com/svgjs" viewBox="0 0 550 345" style="width: 100%; height: 100%;"><defs id="SvgjsDefs15920"></defs><svg xmlns="http://www.w3.org/2000/svg" version="1.1" xmlns:xlink="http://www.w3.org/1999/xlink" xmlns:svgjs="http://svgjs.com/svgjs" viewBox="0 0 640 400" data-background-color="#ffffff" preserveAspectRatio="xMidYMid meet" height="400" width="550" x="0" y="-27.5"><rect width="640" height="400" x="0" y="0" opacity="1" fill="#ffffff" data-fill-palette-color="background" id="background"></rect><g id="tight-bounds" transform="matrix(1,0,0,1,122.24000000000001,170.17297469477)"><svg viewBox="0 0 395.52 59.65405061046" height="59.65405061046" width="395.52"><g><svg viewBox="0 0 528.4171701333846 79.69818115537262" height="59.65405061046" width="395.52"><g><rect width="6.240344831229721" height="79.69818115537262" x="107.93560359624871" y="0" fill="#124948" opacity="1" stroke-width="0" stroke="transparent" fill-opacity="1" class="rect-borderrectangle-0" data-fill-palette-color="primary" rx="1%" id="borderrectangle-0" data-palette-color="#124948"></rect></g><g transform="matrix(1,0,0,1,132.89717013338466,0.19825418197853395)"><svg viewBox="0 0 395.52 79.30167279141556" height="79.30167279141556" width="395.52"><g><svg viewBox="0 0 395.52 79.30167279141556" height="79.30167279141556" width="395.52"><g><svg viewBox="0 0 395.52 79.30167279141556" height="79.30167279141556" width="395.52"><g transform="matrix(1,0,0,1,0,0)"><svg width="395.52" viewBox="2.299999999999998 -42.45 340.15000000000015 65.2" height="79.30167279141556" data-palette-color="#124948"><svg xmlns="http://www.w3.org/2000/svg" version="1.1" xmlns:xlink="http://www.w3.org/1999/xlink" xmlns:svgjs="http://svgjs.com/svgjs"></svg><g class="undefined-text-0" data-fill-palette-color="primary" id="text-0" fill="#124948"><path d="M41.15-29.8c0 2.833-0.733 5.433-2.2 7.8-1.467 2.367-3.6 4.3-6.4 5.8-2.8 1.5-6.133 2.383-10 2.65v0l-2.15 12.05c-0.833 4.633-3.1 6.95-6.8 6.95v0c-2.033 0-3.907-0.6-5.62-1.8-1.72-1.2-3.097-3.033-4.13-5.5-1.033-2.467-1.55-5.5-1.55-9.1v0c0-6.767 1.093-12.51 3.28-17.23 2.18-4.713 5.113-8.247 8.8-10.6 3.68-2.347 7.737-3.52 12.17-3.52v0c3.133 0 5.79 0.55 7.97 1.65 2.187 1.1 3.84 2.59 4.96 4.47 1.113 1.887 1.67 4.013 1.67 6.38zM23.45-18.7c6.833-0.867 10.25-4.417 10.25-10.65v0c0-2.2-0.723-3.993-2.17-5.38-1.453-1.38-3.697-2.07-6.73-2.07v0c-3.433 0-6.423 1.083-8.97 3.25-2.553 2.167-4.52 5.173-5.9 9.02-1.387 3.853-2.08 8.247-2.08 13.18v0c0 2.067 0.207 3.9 0.62 5.5 0.42 1.6 0.957 2.84 1.61 3.72 0.647 0.887 1.27 1.33 1.87 1.33v0c0.833 0 1.467-1.15 1.9-3.45v0l1.65-9.45c-1.3-0.2-1.867-0.283-1.7-0.25v0c-1-0.167-1.65-0.477-1.95-0.93-0.3-0.447-0.45-1.02-0.45-1.72v0c0-0.733 0.21-1.317 0.63-1.75 0.413-0.433 0.987-0.65 1.72-0.65v0c0.333 0 0.583 0.017 0.75 0.05v0c0.8 0.133 1.417 0.217 1.85 0.25v0c0.433-2.6 1.05-6.083 1.85-10.45v0c0.2-1.133 0.66-1.943 1.38-2.43 0.713-0.48 1.553-0.72 2.52-0.72v0c1.1 0 1.893 0.207 2.38 0.62 0.48 0.42 0.72 1.08 0.72 1.98v0c0 0.533-0.033 0.967-0.1 1.3v0zM59.25 0.25c-2.967 0-5.64-0.667-8.02-2-2.387-1.333-4.28-3.293-5.68-5.88-1.4-2.58-2.1-5.67-2.1-9.27v0c0-5.067 0.927-9.533 2.78-13.4 1.847-3.867 4.36-6.85 7.54-8.95 3.187-2.1 6.713-3.15 10.58-3.15v0c2.967 0 5.643 0.667 8.03 2 2.38 1.333 4.27 3.293 5.67 5.88 1.4 2.58 2.1 5.67 2.1 9.27v0c0 5.067-0.923 9.533-2.77 13.4-1.853 3.867-4.37 6.85-7.55 8.95-3.187 2.1-6.713 3.15-10.58 3.15zM59.75-5.65c2.6 0 4.893-0.8 6.88-2.4 1.98-1.6 3.503-3.827 4.57-6.68 1.067-2.847 1.6-6.07 1.6-9.67v0c0-3.967-0.833-6.977-2.5-9.03-1.667-2.047-3.817-3.07-6.45-3.07v0c-2.567 0-4.833 0.79-6.8 2.37-1.967 1.587-3.5 3.803-4.6 6.65-1.1 2.853-1.65 6.097-1.65 9.73v0c0 3.967 0.833 6.977 2.5 9.03 1.667 2.047 3.817 3.07 6.45 3.07zM97.4 0.4c-4.433 0-7.983-0.843-10.65-2.53-2.667-1.68-4-4.253-4-7.72v0c0-1.833 0.317-3.233 0.95-4.2 0.633-0.967 1.567-1.45 2.8-1.45v0c0.9 0 1.633 0.233 2.2 0.7 0.567 0.467 0.85 1.067 0.85 1.8v0c0 0.667-0.05 1.25-0.15 1.75v0c0 0.133-0.023 0.367-0.07 0.7-0.053 0.333-0.08 0.683-0.08 1.05v0c0 1.5 0.76 2.617 2.28 3.35 1.513 0.733 3.637 1.1 6.37 1.1v0c2.833 0 5.05-0.51 6.65-1.53 1.6-1.013 2.4-2.437 2.4-4.27v0c0-1.133-0.367-2.11-1.1-2.93-0.733-0.813-1.65-1.497-2.75-2.05-1.1-0.547-2.65-1.22-4.65-2.02v0c-2.567-1-4.657-1.95-6.27-2.85-1.62-0.9-3.003-2.127-4.15-3.68-1.153-1.547-1.73-3.47-1.73-5.77v0c0-2.4 0.643-4.533 1.93-6.4 1.28-1.867 3.13-3.317 5.55-4.35 2.413-1.033 5.253-1.55 8.52-1.55v0c2.433 0 4.667 0.357 6.7 1.07 2.033 0.72 3.66 1.813 4.88 3.28 1.213 1.467 1.82 3.267 1.82 5.4v0c0 2.1-0.317 3.683-0.95 4.75-0.633 1.067-1.567 1.6-2.8 1.6v0c-0.867 0-1.59-0.267-2.17-0.8-0.587-0.533-0.88-1.167-0.88-1.9v0c0-0.633 0.05-1.217 0.15-1.75v0c0.1-1 0.15-1.633 0.15-1.9v0c0-1.4-0.683-2.467-2.05-3.2-1.367-0.733-3.067-1.1-5.1-1.1v0c-2.867 0-5.057 0.523-6.57 1.57-1.52 1.053-2.28 2.53-2.28 4.43v0c0 1.267 0.393 2.35 1.18 3.25 0.78 0.9 1.753 1.65 2.92 2.25 1.167 0.6 2.8 1.317 4.9 2.15v0c2.533 1.033 4.567 1.967 6.1 2.8 1.533 0.833 2.843 1.967 3.93 3.4 1.08 1.433 1.62 3.2 1.62 5.3v0c0 3.933-1.49 6.957-4.47 9.07-2.987 2.12-6.98 3.18-11.98 3.18zM157.75-41.5c1.033 0.2 1.81 0.55 2.33 1.05 0.513 0.5 0.77 1.083 0.77 1.75v0c0 1.1-0.307 1.9-0.92 2.4-0.62 0.5-1.597 0.7-2.93 0.6v0c-3-0.233-5.34-0.393-7.02-0.48-1.687-0.08-3.897-0.137-6.63-0.17v0c-1.233 6.133-2.367 12.3-3.4 18.5v0c-0.367 2.267-0.75 4.89-1.15 7.87-0.4 2.987-0.667 5.397-0.8 7.23v0c-0.067 0.967-0.467 1.707-1.2 2.22-0.733 0.52-1.617 0.78-2.65 0.78v0c-1.1 0-1.95-0.267-2.55-0.8-0.6-0.533-0.9-1.233-0.9-2.1v0c0-0.8 0.127-2.127 0.38-3.98 0.247-1.847 0.537-3.787 0.87-5.82v0c0.367-2.033 0.65-3.8 0.85-5.3v0c0.367-2.533 0.783-5.05 1.25-7.55 0.467-2.5 0.933-4.867 1.4-7.1v0c0.1-0.5 0.217-1.077 0.35-1.73 0.133-0.647 0.283-1.37 0.45-2.17v0c-3.267 0.1-5.833 0.367-7.7 0.8-1.867 0.433-3.19 1.04-3.97 1.82-0.787 0.787-1.18 1.797-1.18 3.03v0c0 1.133 0.333 2.217 1 3.25v0c0.133 0.233 0.2 0.483 0.2 0.75v0c0 0.633-0.373 1.223-1.12 1.77-0.753 0.553-1.53 0.83-2.33 0.83v0c-0.567 0-1.033-0.167-1.4-0.5v0c-0.667-0.567-1.217-1.377-1.65-2.43-0.433-1.047-0.65-2.237-0.65-3.57v0c0-2.833 0.927-5.11 2.78-6.83 1.847-1.713 4.663-2.97 8.45-3.77 3.78-0.8 8.637-1.2 14.57-1.2v0c3.667 0 6.593 0.067 8.78 0.2 2.18 0.133 4.087 0.35 5.72 0.65zM195.15-11.05c0.433 0 0.777 0.207 1.03 0.62 0.247 0.42 0.37 0.947 0.37 1.58v0c0 0.767-0.117 1.367-0.35 1.8-0.233 0.433-0.6 0.817-1.1 1.15v0c-1.967 1.3-5.1 3.433-9.4 6.4v0c-1.3 6.9-2.983 12.333-5.05 16.3-2.067 3.967-4.683 5.95-7.85 5.95v0c-1.7 0-3.083-0.523-4.15-1.57-1.067-1.053-1.6-2.43-1.6-4.13v0c0-1.567 0.35-3.15 1.05-4.75 0.7-1.6 2.01-3.45 3.93-5.55 1.913-2.1 4.62-4.5 8.12-7.2v0l0.15-0.95c-2.633 1.1-5.217 1.65-7.75 1.65v0c-3.733 0-7.017-0.727-9.85-2.18-2.833-1.447-5.033-3.503-6.6-6.17-1.567-2.667-2.35-5.767-2.35-9.3v0c0-4.933 0.933-9.293 2.8-13.08 1.867-3.78 4.443-6.713 7.73-8.8 3.28-2.08 6.953-3.12 11.02-3.12v0c3.9 0 6.827 0.907 8.78 2.72 1.947 1.82 2.92 4.23 2.92 7.23v0c0 1.967-0.357 3.54-1.07 4.72-0.72 1.187-1.747 1.78-3.08 1.78v0c-0.9 0-1.623-0.217-2.17-0.65-0.553-0.433-0.83-1.033-0.83-1.8v0c0-0.333 0.067-0.9 0.2-1.7v0c0.2-0.933 0.3-1.667 0.3-2.2v0c0-1.4-0.423-2.483-1.27-3.25-0.853-0.767-2.28-1.15-4.28-1.15v0c-2.433 0-4.69 0.7-6.77 2.1-2.087 1.4-3.763 3.49-5.03 6.27-1.267 2.787-1.9 6.13-1.9 10.03v0c0 4 1.093 7.09 3.28 9.27 2.18 2.187 5.337 3.28 9.47 3.28v0c2.3 0 4.7-0.517 7.2-1.55v0l0.7-6.1h-5.1c-0.933 0-1.65-0.227-2.15-0.68-0.5-0.447-0.75-1.187-0.75-2.22v0c0-0.933 0.25-1.667 0.75-2.2 0.5-0.533 1.167-0.8 2-0.8v0h9.35c0.733 0 1.343 0.243 1.83 0.73 0.48 0.48 0.67 1.17 0.57 2.07v0c-0.1 1.067-0.433 3.483-1 7.25v0l-0.55 3.8c2.667-2 5.1-3.733 7.3-5.2v0c0.433-0.267 0.817-0.4 1.15-0.4zM173.35 17.9c0.867 0 1.817-0.983 2.85-2.95 1.033-1.967 2-5.133 2.9-9.5v0c-2.533 2.167-4.357 4.127-5.47 5.88-1.12 1.747-1.68 3.287-1.68 4.62v0c0 1.3 0.467 1.95 1.4 1.95zM240.15-11.15c0.433 0 0.777 0.2 1.03 0.6 0.247 0.4 0.37 0.95 0.37 1.65v0c0 1.3-0.317 2.333-0.95 3.1v0c-1.6 1.933-3.217 3.423-4.85 4.47-1.633 1.053-3.567 1.58-5.8 1.58v0c-2.167 0-4.007-0.583-5.52-1.75-1.52-1.167-2.963-3.167-4.33-6v0c-1.1-2.267-1.967-3.943-2.6-5.03-0.633-1.08-1.257-1.853-1.87-2.32-0.62-0.467-1.38-0.75-2.28-0.85v0c-0.133 0.7-0.517 2.9-1.15 6.6v0c-0.267 1.667-0.433 2.683-0.5 3.05v0c-0.333 2.033-1 3.59-2 4.67-1 1.087-2.517 1.63-4.55 1.63v0c-2.233 0-4.207-0.66-5.92-1.98-1.72-1.313-3.047-3.147-3.98-5.5-0.933-2.347-1.4-5.02-1.4-8.02v0c0-5.6 0.977-10.433 2.93-14.5 1.947-4.067 4.68-7.177 8.2-9.33 3.513-2.147 7.57-3.22 12.17-3.22v0c3.2 0 5.883 0.483 8.05 1.45 2.167 0.967 3.777 2.3 4.83 4 1.047 1.7 1.57 3.617 1.57 5.75v0c0 1.867-0.44 3.69-1.32 5.47-0.887 1.787-2.213 3.363-3.98 4.73-1.767 1.367-3.917 2.383-6.45 3.05v0c1.6 0.433 2.833 1.133 3.7 2.1 0.867 0.967 1.733 2.383 2.6 4.25v0c0.933 2 1.86 3.467 2.78 4.4 0.913 0.933 1.97 1.4 3.17 1.4v0c1.067 0 2.083-0.36 3.05-1.08 0.967-0.713 2.183-1.937 3.65-3.67v0c0.4-0.467 0.85-0.7 1.35-0.7zM205.1-8.25l1.35-7.5c-1.133 0-1.907-0.267-2.32-0.8-0.42-0.533-0.63-1.133-0.63-1.8v0c0-0.8 0.26-1.433 0.78-1.9 0.513-0.467 1.103-0.7 1.77-0.7v0h1.25c0.533-3.267 1.033-6.083 1.5-8.45v0c0.433-2.167 1.833-3.25 4.2-3.25v0c1.9 0 2.85 0.85 2.85 2.55v0c0 0.367-0.017 0.65-0.05 0.85v0l-1.5 8.3c1.8-0.1 3.443-0.533 4.93-1.3 1.48-0.767 2.663-1.833 3.55-3.2 0.88-1.367 1.32-2.917 1.32-4.65v0c0-2.1-0.717-3.75-2.15-4.95-1.433-1.2-3.533-1.8-6.3-1.8v0c-3.267 0-6.123 0.807-8.57 2.42-2.453 1.62-4.363 4.02-5.73 7.2-1.367 3.187-2.05 7.063-2.05 11.63v0c0 2.133 0.217 3.967 0.65 5.5 0.433 1.533 0.967 2.683 1.6 3.45 0.633 0.767 1.233 1.15 1.8 1.15v0c0.433 0 0.793-0.217 1.08-0.65 0.28-0.433 0.503-1.133 0.67-2.1zM250.1 0.25c-2.3 0-4.373-0.567-6.22-1.7-1.853-1.133-3.313-2.777-4.38-4.93-1.067-2.147-1.6-4.687-1.6-7.62v0c0-5.067 1.083-9.76 3.25-14.08 2.167-4.313 5.367-7.78 9.6-10.4 4.233-2.613 9.317-3.92 15.25-3.92v0c1.533 0 3.177 0.117 4.93 0.35 1.747 0.233 3.337 0.583 4.77 1.05v0c0.933 0.267 1.4 0.933 1.4 2v0c0 0.867-0.323 1.683-0.97 2.45-0.653 0.767-1.413 1.15-2.28 1.15v0c-0.267 0-0.467-0.017-0.6-0.05v0c-1.733-0.4-3.217-0.693-4.45-0.88-1.233-0.18-2.533-0.27-3.9-0.27v0c-4.233 0-7.833 1.027-10.8 3.08-2.967 2.047-5.183 4.753-6.65 8.12-1.467 3.367-2.2 7-2.2 10.9v0c0 2.833 0.56 5.023 1.68 6.57 1.113 1.553 2.57 2.33 4.37 2.33v0c2.033 0 3.817-0.833 5.35-2.5 1.533-1.667 2.933-4.367 4.2-8.1 1.267-3.733 2.517-8.8 3.75-15.2v0c0.2-0.933 0.6-1.567 1.2-1.9 0.6-0.333 1.4-0.5 2.4-0.5v0c2.367 0 3.55 0.767 3.55 2.3v0c0 0.267-0.05 0.6-0.15 1v0c-0.867 3.233-1.657 6.807-2.37 10.72-0.72 3.92-1.08 6.897-1.08 8.93v0c0 1.8 0.267 3.107 0.8 3.92 0.533 0.82 1.35 1.23 2.45 1.23v0c1.067 0 2.083-0.36 3.05-1.08 0.967-0.713 2.183-1.937 3.65-3.67v0c0.4-0.467 0.85-0.7 1.35-0.7v0c0.433 0 0.777 0.2 1.03 0.6 0.247 0.4 0.37 0.95 0.37 1.65v0c0 1.3-0.317 2.333-0.95 3.1v0c-1.633 1.967-3.233 3.467-4.8 4.5-1.567 1.033-3.483 1.55-5.75 1.55v0c-2.333 0-4.217-0.677-5.65-2.03-1.433-1.347-2.333-3.253-2.7-5.72v0c-2.467 5.167-6.1 7.75-10.9 7.75zM286 0.25c-1.233 0-2.117-0.277-2.65-0.83-0.533-0.547-0.8-1.587-0.8-3.12v0c0-1.033 0.11-2.36 0.33-3.98 0.213-1.613 0.57-3.837 1.07-6.67v0c0.867-5.233 1.55-9.767 2.05-13.6v0c0.3-2.4 0.45-4.4 0.45-6v0c0-1.5-0.55-2.25-1.65-2.25v0c-0.867 0-1.907 0.44-3.12 1.32-1.22 0.887-2.563 2.297-4.03 4.23v0c-0.467 0.633-0.983 0.95-1.55 0.95v0c-0.467 0-0.873-0.227-1.22-0.68-0.353-0.447-0.53-0.953-0.53-1.52v0c0-0.533 0.11-1.073 0.33-1.62 0.213-0.553 0.57-1.18 1.07-1.88v0c1.6-2.233 3.383-3.96 5.35-5.18 1.967-1.213 3.933-1.82 5.9-1.82v0c1.833 0 3.243 0.583 4.23 1.75 0.98 1.167 1.47 2.867 1.47 5.1v0c0 0.9-0.083 1.957-0.25 3.17-0.167 1.22-0.317 2.213-0.45 2.98-0.133 0.767-0.233 1.3-0.3 1.6v0c1.9-5.433 4.033-9.227 6.4-11.38 2.367-2.147 4.967-3.22 7.8-3.22v0c2.167 0 3.877 0.767 5.13 2.3 1.247 1.533 1.87 3.7 1.87 6.5v0c0 1.1-0.15 2.467-0.45 4.1v0c1.667-4.6 3.617-7.9 5.85-9.9 2.233-2 4.8-3 7.7-3v0c2.333 0 4.127 0.75 5.38 2.25 1.247 1.5 1.87 3.6 1.87 6.3v0c0 1.467-0.217 3.25-0.65 5.35v0l-3.05 14.3c-0.333 1.667-0.5 3.1-0.5 4.3v0c0 1.4 0.327 2.45 0.98 3.15 0.647 0.7 1.553 1.05 2.72 1.05v0c1.1 0 2.177-0.367 3.23-1.1 1.047-0.733 2.287-1.95 3.72-3.65v0c0.4-0.467 0.85-0.7 1.35-0.7v0c0.433 0 0.777 0.2 1.03 0.6 0.247 0.4 0.37 0.95 0.37 1.65v0c0 1.3-0.317 2.333-0.95 3.1v0c-1.733 2.1-3.45 3.633-5.15 4.6-1.7 0.967-3.483 1.45-5.35 1.45v0c-2.833 0-5.05-0.84-6.65-2.52-1.6-1.687-2.4-3.947-2.4-6.78v0c0-1.967 0.4-4.817 1.2-8.55v0l2-9.15c0.067-0.3 0.183-0.833 0.35-1.6 0.167-0.767 0.3-1.493 0.4-2.18 0.1-0.68 0.15-1.353 0.15-2.02v0c0-1.167-0.223-2.043-0.67-2.63-0.453-0.58-1.097-0.87-1.93-0.87v0c-1.567 0-3.207 1.01-4.92 3.03-1.72 2.013-3.353 5.353-4.9 10.02-1.553 4.667-2.813 10.733-3.78 18.2v0c-0.233 2-0.64 3.34-1.22 4.02-0.587 0.687-1.53 1.03-2.83 1.03v0c-1.133 0-1.957-0.267-2.47-0.8-0.52-0.533-0.78-1.533-0.78-3v0c0-1.367 0.183-3.16 0.55-5.38 0.367-2.213 0.833-4.82 1.4-7.82v0c1.533-8.067 2.3-13.267 2.3-15.6v0c0-1.267-0.24-2.2-0.72-2.8-0.487-0.6-1.213-0.9-2.18-0.9v0c-1.633 0-3.317 0.927-5.05 2.78-1.733 1.847-3.423 5.127-5.07 9.84-1.653 4.72-3.03 11.097-4.13 19.13v0c-0.233 1.7-0.573 2.883-1.02 3.55-0.453 0.667-1.33 1-2.63 1z" data-fill-palette-color="primary" fill="#124948" opacity="1"></path></g></svg></g></svg></g></svg></g></svg></g><g transform="matrix(1,0,0,1,0,0.19825418197853395)"><svg viewBox="0 0 89.2143818903425 79.30167279141556" height="79.30167279141556" width="89.2143818903425"><g><svg xmlns="http://www.w3.org/2000/svg" xmlns:xlink="http://www.w3.org/1999/xlink" version="1.0" x="0" y="0" viewBox="5 10 90 80" enable-background="new 0 0 100 100" xml:space="preserve" height="79.30167279141556" width="89.2143818903425" class="icon-icon-0" fill="#15106b" data-fill-palette-color="accent" id="icon-0"><path d="M95 30H78.1l-10-20H31.9l-10 20H5v60h90V30zM85 80H15V40h13.1l10-20h23.8l10 20H85V80z" fill="#15106b" data-fill-palette-color="accent"></path><path d="M50 35c-11 0-20 9-20 20s9 20 20 20 20-9 20-20S61 35 50 35zM50 65c-5.5 0-10-4.5-10-10s4.5-10 10-10 10 4.5 10 10S55.5 65 50 65z" fill="#15106b" data-fill-palette-color="accent"></path></svg><g></g></g></svg></g></svg></g></svg><rect width="395.52" height="59.65405061046" fill="transparent" stroke="transparent"></rect></g><defs></defs></svg><rect id="SvgjsRect15937" width="266.4148864746094" height="60.76629638671875" x="185.53497314453125" y="143.11685180664062" rx="2.5" ry="2.5" class="logo-element-hover-target"></rect><rect id="SvgjsRect15941" width="69.38639068603516" height="63.01019287109375" x="100.04999542236328" y="141.99490356445312" rx="2.5" ry="2.5" class="logo-element-hover-target"></rect></svg>