<svg id="SvgjsSvg15508" width="550" height="345" xmlns="http://www.w3.org/2000/svg" version="1.1" xmlns:xlink="http://www.w3.org/1999/xlink" xmlns:svgjs="http://svgjs.com/svgjs" viewBox="0 0 550 345" style="width: 100%; height: 100%;"><defs id="SvgjsDefs15509"></defs><svg xmlns="http://www.w3.org/2000/svg" version="1.1" xmlns:xlink="http://www.w3.org/1999/xlink" xmlns:svgjs="http://svgjs.com/svgjs" viewBox="0 0 640 400" data-background-color="#ffffff" preserveAspectRatio="xMidYMid meet" height="400" width="550" x="0" y="-27.5"><rect width="640" height="400" x="0" y="0" opacity="1" fill="#ffffff" data-fill-palette-color="background" id="background"></rect><g id="tight-bounds" transform="matrix(1,0,0,1,122.24000000000001,76.4)"><svg viewBox="0 0 395.52 247.2" height="247.2" width="395.52"><g><svg xmlns="http://www.w3.org/2000/svg" version="1.1" xmlns:xlink="http://www.w3.org/1999/xlink" xmlns:svgjs="http://svgjs.com/svgjs"></svg></g><g><svg viewBox="0 0 395.52 247.2" height="247.2" width="395.52"><g transform="matrix(4.903999835990873, 0, 0, 4.903999835990873, 55.30370876430112, 1)"><svg viewBox="2.9510000000000005 6.999998327802477 58.098 50.00000167219752" xmlns="http://www.w3.org/2000/svg" x="0" y="0" height="50.00000167219752" width="58.098" class="icon-none" fill="#15106b" data-fill-palette-color="accent" id="none"><g data-name="like post" id="like_post"><path class="cls-1" d="M60.049 7h-32a1 1 0 0 0 0 2h31V47h-38V36a1 1 0 0 0-2 0V48a1 1 0 0 0 1 1h40a1 1 0 0 0 1-1V8A1 1 0 0 0 60.049 7Z" fill="#15106b" data-fill-palette-color="accent"></path><path class="cls-1" d="M24.049 35a1 1 0 0 0-1 1v8a1 1 0 0 0 1 1h32a1 1 0 0 0 1-1V12a1 1 0 0 0-1-1h-28a1 1 0 0 0 0 2h27V43h-30V36A1 1 0 0 0 24.049 35Z" fill="#15106b" data-fill-palette-color="accent"></path><path class="cls-1" d="M40.078 35a1.74 1.74 0 0 1-0.211-0.153 3.671 3.671 0 0 1-0.444-0.513 21.8 21.8 0 0 1-1.359-2.25 14.346 14.346 0 0 0-2.2-3.265 2.07 2.07 0 0 0-3.068 0 14.344 14.344 0 0 0-2.2 3.265 21.822 21.822 0 0 1-1.359 2.25 3.614 3.614 0 0 1-0.445 0.513A1.75 1.75 0 0 1 28.58 35a1 1 0 0 0 0.033 2 2.287 2.287 0 0 0 1.534-0.68 14.377 14.377 0 0 0 2.2-3.266A21.772 21.772 0 0 1 33.7 30.8a3.674 3.674 0 0 1 0.445-0.514 1.512 1.512 0 0 1 0.181-0.133 1.607 1.607 0 0 1 0.182 0.133 3.675 3.675 0 0 1 0.444 0.514 21.772 21.772 0 0 1 1.359 2.249 14.377 14.377 0 0 0 2.2 3.266 2.287 2.287 0 0 0 1.534 0.68 2.912 2.912 0 0 0 1.753-0.683 13.275 13.275 0 0 0 1.875-1.964 14.57 14.57 0 0 1 1.33-1.47c0.265-0.238 0.5-0.458 0.761-0.458s0.5 0.22 0.76 0.458a14.567 14.567 0 0 1 1.331 1.47 13.176 13.176 0 0 0 1.875 1.964A2.912 2.912 0 0 0 51.487 37a1 1 0 0 0 0-2c-0.264 0-0.5-0.22-0.76-0.458a14.574 14.574 0 0 1-1.331-1.47 13.228 13.228 0 0 0-1.874-1.964 2.591 2.591 0 0 0-3.506 0 13.231 13.231 0 0 0-1.875 1.964 14.563 14.563 0 0 1-1.33 1.47A1.4 1.4 0 0 1 40.078 35Z" fill="#15106b" data-fill-palette-color="accent"></path><path class="cls-1" d="M46.911 27.838a4.919 4.919 0 1 0-4.918-4.919A4.921 4.921 0 0 0 46.911 27.838Zm0-7.838a2.919 2.919 0 1 1-2.918 2.919A2.92 2.92 0 0 1 46.911 20Z" fill="#15106b" data-fill-palette-color="accent"></path><path class="cls-1" d="M60.049 55h-40a1 1 0 0 0 0 2h40a1 1 0 1 0 0-2Z" fill="#15106b" data-fill-palette-color="accent"></path><path class="cls-1" d="M60.049 51h-40a1 1 0 0 0 0 2h40a1 1 0 1 0 0-2Z" fill="#15106b" data-fill-palette-color="accent"></path><path class="cls-1" d="M29.94 31.141l2-14A1 1 0 0 0 30.951 16H22.2l1.729-7.783A1 1 0 0 0 22.951 7h-6a1 1 0 0 0-1 1 10.8 10.8 0 0 1-1.308 4.028 42.358 42.358 0 0 1-2.524 4.417 1.008 1.008 0 0 0-0.168 0.555V31a1 1 0 0 0 1 1h16A1 1 0 0 0 29.94 31.141ZM13.951 30V17.3a40.942 40.942 0 0 0 3.058-5.642A13.26 13.26 0 0 0 17.851 9H21.7l-1.73 7.783A1 1 0 0 0 20.951 18H29.8L28.083 30Z" fill="#15106b" data-fill-palette-color="accent"></path><path class="cls-1" d="M9.951 16h-6a1 1 0 0 0-1 1V31a1 1 0 0 0 1 1h6a1 1 0 0 0 1-1V17A1 1 0 0 0 9.951 16Zm-1 14h-4V18h4Z" fill="#15106b" data-fill-palette-color="accent"></path></g></svg><g></g></g><rect width="348.05760000000004" height="110.03484858569054" fill="#ffffff" y="68.58257570715472" x="23.731199999999973" data-fill-palette-color="quaternary"></rect><g transform="matrix(1,0,0,1,39.55199999999999,73.58415973377703)"><svg viewBox="0 0 316.416 100.03168053244593" height="100.03168053244593" width="316.416"><g><svg viewBox="0 0 316.416 100.03168053244593" height="100.03168053244593" width="316.416"><g><svg viewBox="0 0 316.416 100.03168053244593" height="100.03168053244593" width="316.416"><g><svg viewBox="0 0 316.416 100.03168053244593" height="100.03168053244593" width="316.416"><g><svg viewBox="0 0 316.416 100.03168053244593" height="100.03168053244593" width="316.416"><g transform="matrix(1,0,0,1,0,0)"><svg width="316.416" viewBox="-5.95 -43.65 207.38 66.5" height="100.03168053244593" data-palette-color="#124948"><g class="undefined-text-0" data-fill-palette-color="primary" id="text-0" fill="#124948"><path d="M29.1-11.15Q29.75-11.15 30.13-10.55 30.5-9.95 30.5-8.9L30.5-8.9Q30.5-6.9 29.55-5.8L29.55-5.8Q27.4-3.15 24.93-1.45 22.45 0.25 19.3 0.25L19.3 0.25Q16.65 0.25 15-1.65L15-1.65Q12.15 0.2 9.05 0.25L9.05 0.25Q8.4 9.9 6.1 16.38 3.8 22.85-0.65 22.85L-0.65 22.85Q-3.35 22.85-4.65 20.9-5.95 18.95-5.95 15.5L-5.95 15.5Q-5.95 10.6-3.7 4.08-1.45-2.45 3.25-10.3L3.25-10.3Q3.25-17.6 3.15-20.45L3.15-20.45Q3.1-21.9 4.3-22.75 5.5-23.6 7.3-23.6L7.3-23.6Q8.35-23.6 8.83-23.18 9.3-22.75 9.35-21.5L9.35-21.5Q9.35-20.25 9.4-19.65L9.4-19.65Q11-21.65 12.55-22.53 14.1-23.4 15.85-23.4L15.85-23.4Q18.65-23.4 20.43-21.15 22.2-18.9 22.2-15.25L22.2-15.25Q22.2-12.6 21.35-10.1 20.5-7.6 19-5.55L19-5.55Q20.05-5.25 20.75-5.25L20.75-5.25Q22.4-5.25 23.9-6.45 25.4-7.65 27.75-10.45L27.75-10.45Q28.35-11.15 29.1-11.15L29.1-11.15ZM9.3-4.55Q11.1-4.95 12.63-6.53 14.15-8.1 15.05-10.43 15.95-12.75 15.95-15.3L15.95-15.3Q15.95-16.8 15.35-17.57 14.75-18.35 13.75-18.35L13.75-18.35Q11.95-18.35 9.4-14.55L9.4-14.55Q9.35-12.35 9.35-8.1L9.35-8.1Q9.35-5.8 9.3-4.55L9.3-4.55ZM-0.25 17.95Q1.1 17.95 2 12.08 2.9 6.2 3.15-2.55L3.15-2.55Q1 2.45-0.25 7-1.5 11.55-1.5 14.65L-1.5 14.65Q-1.5 16.25-1.13 17.1-0.75 17.95-0.25 17.95L-0.25 17.95ZM51.95-15.35Q52.6-15.35 52.95-14.7 53.3-14.05 53.3-13.05L53.3-13.05Q53.3-10.65 51.85-10.2L51.85-10.2Q48.85-9.15 45.25-9L45.25-9Q44.3-4.8 41.5-2.27 38.7 0.25 35.15 0.25L35.15 0.25Q32.15 0.25 30.02-1.2 27.9-2.65 26.8-5.05 25.7-7.45 25.7-10.25L25.7-10.25Q25.7-14.05 27.15-17.03 28.6-20 31.15-21.68 33.7-23.35 36.8-23.35L36.8-23.35Q40.6-23.35 42.92-20.73 45.25-18.1 45.65-14.25L45.65-14.25Q48-14.4 51.25-15.25L51.25-15.25Q51.65-15.35 51.95-15.35L51.95-15.35ZM35.55-5.05Q37.15-5.05 38.32-6.35 39.5-7.65 39.9-10.1L39.9-10.1Q38.35-11.15 37.52-12.85 36.7-14.55 36.7-16.45L36.7-16.45Q36.7-17.25 36.85-18.05L36.85-18.05 36.6-18.05Q34.6-18.05 33.27-16.13 31.95-14.2 31.95-10.7L31.95-10.7Q31.95-7.95 33.02-6.5 34.1-5.05 35.55-5.05L35.55-5.05ZM58.3 1.35Q55.7 1.35 54.32 0.15 52.95-1.05 52.95-2.55L52.95-2.55Q52.95-3.85 53.89-4.8 54.84-5.75 56.7-5.75L56.7-5.75Q57.34-5.75 58.22-5.63 59.09-5.5 59.55-5.45L59.55-5.45Q59.49-6.75 58.97-7.9 58.45-9.05 57.64-10.13 56.84-11.2 56.14-12L56.14-12Q54.59-9.05 53.07-7.1 51.55-5.15 49.74-3.4L49.74-3.4Q48.84-2.5 47.84-2.5L47.84-2.5Q47.05-2.5 46.55-3.08 46.05-3.65 46.05-4.5L46.05-4.5Q46.05-5.5 46.74-6.35L46.74-6.35 47.39-7.15Q50.14-10.55 51.55-12.75L51.55-12.75Q52.39-14.2 53.55-16.63 54.7-19.05 55.8-21.65L55.8-21.65Q56.74-23.85 59.74-23.85L59.74-23.85Q61.14-23.85 61.7-23.6 62.24-23.35 62.24-22.8L62.24-22.8Q62.24-22.5 62.05-21.85 61.84-21.2 61.49-20.55L61.49-20.55Q60.59-18.75 60.59-17.5L60.59-17.5Q60.59-16.75 61.12-15.85 61.64-14.95 62.75-13.6L62.75-13.6Q64.34-11.5 65.17-10.03 66-8.55 66-6.8L66-6.8Q66-6.3 65.89-5.4L65.89-5.4Q68.34-6.35 71.64-10.45L71.64-10.45Q72.25-11.15 73-11.15L73-11.15Q73.64-11.15 74.02-10.55 74.39-9.95 74.39-8.9L74.39-8.9Q74.39-7 73.44-5.8L73.44-5.8Q70.94-2.7 68.67-1.58 66.39-0.45 63.05-0.35L63.05-0.35Q61.05 1.35 58.3 1.35L58.3 1.35ZM92.64-11.15Q93.29-11.15 93.67-10.55 94.04-9.95 94.04-8.9L94.04-8.9Q94.04-6.9 93.09-5.8L93.09-5.8Q90.94-3.15 88.39-1.45 85.84 0.25 82.54 0.25L82.54 0.25Q72.34 0.25 72.34-14.1L72.34-14.1Q72.34-16.3 72.49-18.55L72.49-18.55 70.54-18.55Q69.04-18.55 68.52-19.1 67.99-19.65 67.99-20.85L67.99-20.85Q67.99-23.65 70.24-23.65L70.24-23.65 73.09-23.65Q73.94-29.15 75.69-33.7 77.44-38.25 79.92-40.95 82.39-43.65 85.24-43.65L85.24-43.65Q87.34-43.65 88.54-41.8 89.74-39.95 89.74-37.15L89.74-37.15Q89.74-29.4 83.24-23.65L83.24-23.65 88.84-23.65Q89.64-23.65 89.99-23.3 90.34-22.95 90.34-22L90.34-22Q90.34-18.55 84.69-18.55L84.69-18.55 78.59-18.55Q78.49-16.05 78.49-14.65L78.49-14.65Q78.49-9.45 79.72-7.35 80.94-5.25 83.59-5.25L83.59-5.25Q85.74-5.25 87.39-6.55 89.04-7.85 91.29-10.45L91.29-10.45Q91.89-11.15 92.64-11.15L92.64-11.15ZM83.89-38.85Q83.14-38.85 82.22-36.98 81.29-35.1 80.47-31.78 79.64-28.45 79.09-24.4L79.09-24.4Q82.04-26.95 83.52-30.13 84.99-33.3 84.99-35.9L84.99-35.9Q84.99-38.85 83.89-38.85L83.89-38.85ZM115.59-11.05Q116.24-11.05 116.62-10.43 116.99-9.8 116.99-8.85L116.99-8.85Q116.99-7.7 116.64-7.05 116.29-6.4 115.54-5.9L115.54-5.9Q111.24-3 109.24-1.6L109.24-1.6 106.04 0.55Q104.14 10.9 101.06 16.82 97.99 22.75 93.24 22.75L93.24 22.75Q90.69 22.75 89.09 21.18 87.49 19.6 87.49 17.05L87.49 17.05Q87.49 13.5 90.29 9.43 93.09 5.35 100.79-0.6L100.79-0.6 101.09-2.55Q100.24-1.2 98.87-0.48 97.49 0.25 96.14 0.25L96.14 0.25Q93.04 0.25 91.19-2 89.34-4.25 89.34-7.9L89.34-7.9Q89.34-11.9 91.19-15.48 93.04-19.05 96.12-21.23 99.19-23.4 102.64-23.4L102.64-23.4Q103.74-23.4 104.12-22.98 104.49-22.55 104.74-21.45L104.74-21.45Q105.69-21.65 106.94-21.65L106.94-21.65Q108.19-21.65 108.72-21.28 109.24-20.9 109.24-19.8L109.24-19.8Q109.24-19.2 109.19-18.85L109.19-18.85Q108.99-17.3 107.94-11L107.94-11Q107.74-9.8 107.52-8.38 107.29-6.95 107.04-5.35L107.04-5.35Q110.89-8.35 114.44-10.65L114.44-10.65Q115.09-11.05 115.59-11.05L115.59-11.05ZM97.94-4.8Q99.09-4.8 100.14-6.2 101.19-7.6 101.64-10.2L101.64-10.2 103.24-18.75Q101.19-18.7 99.44-17.18 97.69-15.65 96.64-13.15 95.59-10.65 95.59-7.85L95.59-7.85Q95.59-6.3 96.22-5.55 96.84-4.8 97.94-4.8L97.94-4.8ZM93.79 17.9Q95.04 17.9 96.62 14.9 98.19 11.9 99.64 5.35L99.64 5.35Q95.79 8.65 94.09 11.3 92.39 13.95 92.39 15.95L92.39 15.95Q92.39 16.8 92.72 17.35 93.04 17.9 93.79 17.9L93.79 17.9ZM117.49 0.25Q115.59 0.25 114.81-1.75 114.04-3.75 114.04-8.15L114.04-8.15Q114.04-14.65 115.89-20.5L115.89-20.5Q116.34-21.95 117.36-22.63 118.39-23.3 120.24-23.3L120.24-23.3Q121.24-23.3 121.64-23.05 122.04-22.8 122.04-22.1L122.04-22.1Q122.04-21.3 121.29-18.5L121.29-18.5Q120.79-16.5 120.49-15 120.19-13.5 119.99-11.3L119.99-11.3Q121.64-15.6 123.69-18.3 125.74-21 127.71-22.15 129.69-23.3 131.34-23.3L131.34-23.3Q134.59-23.3 134.59-20.05L134.59-20.05Q134.59-19.4 134.14-16.9L134.14-16.9Q133.74-14.9 133.74-14.4L133.74-14.4Q133.74-12.65 134.99-12.65L134.99-12.65Q136.39-12.65 138.59-14.85L138.59-14.85Q139.24-15.5 139.94-15.5L139.94-15.5Q140.59-15.5 140.96-14.93 141.34-14.35 141.34-13.4L141.34-13.4Q141.34-11.55 140.34-10.5L140.34-10.5Q138.94-9.05 137.06-8.03 135.19-7 133.09-7L133.09-7Q130.44-7 129.06-8.35 127.69-9.7 127.69-12L127.69-12Q127.69-12.75 127.84-13.5L127.84-13.5Q127.94-14.5 127.94-14.85L127.94-14.85Q127.94-15.65 127.39-15.65L127.39-15.65Q126.64-15.65 125.41-13.98 124.19-12.3 122.99-9.55 121.79-6.8 121.04-3.75L121.04-3.75Q120.49-1.4 119.76-0.58 119.04 0.25 117.49 0.25L117.49 0.25ZM142.84 0.25Q139.74 0.25 137.89-2 136.04-4.25 136.04-7.9L136.04-7.9Q136.04-11.9 137.89-15.48 139.74-19.05 142.81-21.23 145.89-23.4 149.34-23.4L149.34-23.4Q150.44-23.4 150.81-22.98 151.19-22.55 151.44-21.45L151.44-21.45Q152.49-21.65 153.64-21.65L153.64-21.65Q156.09-21.65 156.09-19.9L156.09-19.9Q156.09-18.85 155.34-14.9L155.34-14.9Q154.19-9.15 154.19-6.9L154.19-6.9Q154.19-6.15 154.56-5.7 154.94-5.25 155.54-5.25L155.54-5.25Q156.49-5.25 157.84-6.48 159.19-7.7 161.49-10.45L161.49-10.45Q162.09-11.15 162.84-11.15L162.84-11.15Q163.49-11.15 163.86-10.55 164.24-9.95 164.24-8.9L164.24-8.9Q164.24-6.9 163.29-5.8L163.29-5.8Q161.24-3.25 158.94-1.5 156.64 0.25 154.49 0.25L154.49 0.25Q152.84 0.25 151.46-0.88 150.09-2 149.39-3.95L149.39-3.95Q146.79 0.25 142.84 0.25L142.84 0.25ZM144.64-4.8Q145.74-4.8 146.74-6.1 147.74-7.4 148.19-9.55L148.19-9.55 150.04-18.75Q147.94-18.7 146.16-17.18 144.39-15.65 143.34-13.15 142.29-10.65 142.29-7.85L142.29-7.85Q142.29-6.3 142.91-5.55 143.54-4.8 144.64-4.8L144.64-4.8ZM163.73 0.25Q161.83 0.25 161.06-1.75 160.28-3.75 160.28-8.15L160.28-8.15Q160.28-14.65 162.13-20.5L162.13-20.5Q162.58-21.95 163.61-22.63 164.63-23.3 166.48-23.3L166.48-23.3Q167.48-23.3 167.88-23.05 168.28-22.8 168.28-22.1L168.28-22.1Q168.28-21.3 167.53-18.5L167.53-18.5Q167.03-16.5 166.73-15.03 166.43-13.55 166.23-11.35L166.23-11.35Q167.58-15.25 169.46-17.95 171.33-20.65 173.31-21.98 175.28-23.3 177.03-23.3L177.03-23.3Q178.78-23.3 179.51-22.5 180.23-21.7 180.23-20.05L180.23-20.05Q180.23-18.45 179.28-14.25L179.28-14.25Q178.88-12.45 178.73-11.55L178.73-11.55Q181.23-17.7 184.28-20.5 187.33-23.3 189.98-23.3L189.98-23.3Q193.23-23.3 193.23-20.05L193.23-20.05Q193.23-18.1 192.13-13L192.13-13Q191.18-8.65 191.18-7.25L191.18-7.25Q191.18-5.25 192.63-5.25L192.63-5.25Q193.63-5.25 195.01-6.48 196.38-7.7 198.68-10.45L198.68-10.45Q199.28-11.15 200.03-11.15L200.03-11.15Q200.68-11.15 201.06-10.55 201.43-9.95 201.43-8.9L201.43-8.9Q201.43-6.9 200.48-5.8L200.48-5.8Q198.33-3.15 195.86-1.45 193.38 0.25 190.23 0.25L190.23 0.25Q187.68 0.25 186.38-1.23 185.08-2.7 185.08-5.5L185.08-5.5Q185.08-6.9 185.78-10.5L185.78-10.5Q186.43-13.65 186.43-14.85L186.43-14.85Q186.43-15.65 185.88-15.65L185.88-15.65Q185.23-15.65 184.03-13.98 182.83-12.3 181.63-9.55 180.43-6.8 179.68-3.75L179.68-3.75Q179.13-1.35 178.41-0.55 177.68 0.25 176.08 0.25L176.08 0.25Q174.43 0.25 173.61-1.33 172.78-2.9 172.78-5.15L172.78-5.15Q172.78-7.05 173.28-10.65L173.28-10.65Q173.68-13.85 173.68-14.85L173.68-14.85Q173.68-15.65 173.13-15.65L173.13-15.65Q172.38-15.65 171.23-13.85 170.08-12.05 169.01-9.25 167.93-6.45 167.28-3.75L167.28-3.75Q166.73-1.4 166.01-0.58 165.28 0.25 163.73 0.25L163.73 0.25Z" fill="#124948" data-fill-palette-color="primary"></path></g></svg></g></svg></g></svg></g></svg></g></svg></g></svg></g></svg></g></svg><rect width="395.52" height="247.2" fill="transparent" stroke="transparent"></rect></g><defs></defs></svg><rect id="SvgjsRect15529" width="280.0806427001953" height="97.96469116210938" x="135.95960998535156" y="124.51765441894531" rx="2.5" ry="2.5" class="logo-element-hover-target"></rect></svg>