<svg xmlns="http://www.w3.org/2000/svg" viewBox="76.91 129.98 352.51 72.5">  <g id="tight-bounds" transform="matrix(0.888741, 0, 0, 0.943155, 77.405533, 130.475388)" style="">    <svg viewBox="0 0 395.52 75.81332941349405" height="75.81332941349405" width="395.52">      <g>        <svg viewBox="0 0 395.52 75.81332941349405" height="75.81332941349405" width="395.52">          <g>            <svg viewBox="0 0 395.52 75.81332941349405" height="75.81332941349405" width="395.52">              <g>                <svg viewBox="0 0 395.52 75.81332941349405" height="75.81332941349405" width="395.52">                  <g>                    <svg viewBox="0 0 395.52 75.81332941349405" height="75.81332941349405" width="395.52">                      <g transform="matrix(1,0,0,1,0,0)">                        <svg width="395.52" viewBox="2.3 -42.45 340.13 65.2" height="75.81332941349405" data-palette-color="#124948">                          <path d="M41.15-29.8Q41.15-25.55 38.95-22 36.75-18.45 32.55-16.2 28.35-13.95 22.55-13.55L22.55-13.55 20.4-1.5Q19.15 5.45 13.6 5.45L13.6 5.45Q10.55 5.45 7.98 3.65 5.4 1.85 3.85-1.85 2.3-5.55 2.3-10.95L2.3-10.95Q2.3-21.1 5.58-28.18 8.85-35.25 14.38-38.78 19.9-42.3 26.55-42.3L26.55-42.3Q31.25-42.3 34.52-40.65 37.8-39 39.48-36.18 41.15-33.35 41.15-29.8L41.15-29.8ZM23.45-18.7Q33.7-20 33.7-29.35L33.7-29.35Q33.7-32.65 31.53-34.73 29.35-36.8 24.8-36.8L24.8-36.8Q19.65-36.8 15.83-33.55 12-30.3 9.93-24.53 7.85-18.75 7.85-11.35L7.85-11.35Q7.85-8.25 8.47-5.85 9.1-3.45 10.08-2.13 11.05-0.8 11.95-0.8L11.95-0.8Q13.2-0.8 13.85-4.25L13.85-4.25 15.5-13.7Q13.55-14 13.8-13.95L13.8-13.95Q12.3-14.2 11.85-14.88 11.4-15.55 11.4-16.6L11.4-16.6Q11.4-17.7 12.03-18.35 12.65-19 13.75-19L13.75-19Q14.25-19 14.5-18.95L14.5-18.95Q15.7-18.75 16.35-18.7L16.35-18.7Q17-22.6 18.2-29.15L18.2-29.15Q18.5-30.85 19.58-31.58 20.65-32.3 22.1-32.3L22.1-32.3Q23.75-32.3 24.48-31.68 25.2-31.05 25.2-29.7L25.2-29.7Q25.2-28.9 25.1-28.4L25.1-28.4 23.45-18.7ZM59.25 0.25Q54.8 0.25 51.22-1.75 47.65-3.75 45.55-7.63 43.45-11.5 43.45-16.9L43.45-16.9Q43.45-24.5 46.22-30.3 49-36.1 53.77-39.25 58.55-42.4 64.35-42.4L64.35-42.4Q68.8-42.4 72.37-40.4 75.95-38.4 78.05-34.52 80.15-30.65 80.15-25.25L80.15-25.25Q80.15-17.65 77.37-11.85 74.6-6.05 69.82-2.9 65.05 0.25 59.25 0.25L59.25 0.25ZM59.75-5.65Q63.65-5.65 66.62-8.05 69.6-10.45 71.2-14.73 72.8-19 72.8-24.4L72.8-24.4Q72.8-30.35 70.3-33.43 67.8-36.5 63.85-36.5L63.85-36.5Q60-36.5 57.05-34.13 54.1-31.75 52.45-27.48 50.8-23.2 50.8-17.75L50.8-17.75Q50.8-11.8 53.3-8.72 55.8-5.65 59.75-5.65L59.75-5.65ZM97.4 0.4Q90.75 0.4 86.75-2.13 82.75-4.65 82.75-9.85L82.75-9.85Q82.75-12.6 83.7-14.05 84.65-15.5 86.5-15.5L86.5-15.5Q87.85-15.5 88.7-14.8 89.55-14.1 89.55-13L89.55-13Q89.55-12 89.4-11.25L89.4-11.25Q89.4-11.05 89.32-10.55 89.25-10.05 89.25-9.5L89.25-9.5Q89.25-7.25 91.52-6.15 93.8-5.05 97.9-5.05L97.9-5.05Q102.15-5.05 104.55-6.58 106.95-8.1 106.95-10.85L106.95-10.85Q106.95-12.55 105.85-13.78 104.75-15 103.1-15.83 101.45-16.65 98.45-17.85L98.45-17.85Q94.6-19.35 92.17-20.7 89.75-22.05 88.02-24.38 86.3-26.7 86.3-30.15L86.3-30.15Q86.3-33.75 88.22-36.55 90.15-39.35 93.77-40.9 97.4-42.45 102.3-42.45L102.3-42.45Q105.95-42.45 109-41.38 112.05-40.3 113.87-38.1 115.7-35.9 115.7-32.7L115.7-32.7Q115.7-29.55 114.75-27.95 113.8-26.35 111.95-26.35L111.95-26.35Q110.65-26.35 109.77-27.15 108.9-27.95 108.9-29.05L108.9-29.05Q108.9-30 109.05-30.8L109.05-30.8Q109.2-32.3 109.2-32.7L109.2-32.7Q109.2-34.8 107.15-35.9 105.1-37 102.05-37L102.05-37Q97.75-37 95.47-35.43 93.2-33.85 93.2-31L93.2-31Q93.2-29.1 94.37-27.75 95.55-26.4 97.3-25.5 99.05-24.6 102.2-23.35L102.2-23.35Q106-21.8 108.3-20.55 110.6-19.3 112.22-17.15 113.85-15 113.85-11.85L113.85-11.85Q113.85-5.95 109.37-2.78 104.9 0.4 97.4 0.4L97.4 0.4ZM157.74-41.5Q159.29-41.2 160.07-40.45 160.84-39.7 160.84-38.7L160.84-38.7Q160.84-37.05 159.92-36.3 158.99-35.55 156.99-35.7L156.99-35.7Q152.49-36.05 149.97-36.18 147.44-36.3 143.34-36.35L143.34-36.35Q141.49-27.15 139.94-17.85L139.94-17.85Q139.39-14.45 138.79-9.98 138.19-5.5 137.99-2.75L137.99-2.75Q137.89-1.3 136.79-0.53 135.69 0.25 134.14 0.25L134.14 0.25Q132.49 0.25 131.59-0.55 130.69-1.35 130.69-2.65L130.69-2.65Q130.69-3.85 131.07-6.63 131.44-9.4 131.94-12.45L131.94-12.45Q132.49-15.5 132.79-17.75L132.79-17.75Q133.34-21.55 134.04-25.3 134.74-29.05 135.44-32.4L135.44-32.4Q135.59-33.15 135.79-34.13 135.99-35.1 136.24-36.3L136.24-36.3Q131.34-36.15 128.54-35.5 125.74-34.85 124.57-33.68 123.39-32.5 123.39-30.65L123.39-30.65Q123.39-28.95 124.39-27.4L124.39-27.4Q124.59-27.05 124.59-26.65L124.59-26.65Q124.59-25.7 123.47-24.88 122.34-24.05 121.14-24.05L121.14-24.05Q120.29-24.05 119.74-24.55L119.74-24.55Q118.74-25.4 118.09-26.98 117.44-28.55 117.44-30.55L117.44-30.55Q117.44-34.8 120.22-37.38 122.99-39.95 128.67-41.15 134.34-42.35 143.24-42.35L143.24-42.35Q148.74-42.35 152.02-42.15 155.29-41.95 157.74-41.5L157.74-41.5ZM195.14-11.05Q195.79-11.05 196.17-10.43 196.54-9.8 196.54-8.85L196.54-8.85Q196.54-7.7 196.19-7.05 195.84-6.4 195.09-5.9L195.09-5.9Q192.14-3.95 185.69 0.5L185.69 0.5Q183.74 10.85 180.64 16.8 177.54 22.75 172.79 22.75L172.79 22.75Q170.24 22.75 168.64 21.18 167.04 19.6 167.04 17.05L167.04 17.05Q167.04 14.7 168.09 12.3 169.14 9.9 172.02 6.75 174.89 3.6 180.14-0.45L180.14-0.45 180.29-1.4Q176.34 0.25 172.54 0.25L172.54 0.25Q166.94 0.25 162.69-1.93 158.44-4.1 156.09-8.1 153.74-12.1 153.74-17.4L153.74-17.4Q153.74-24.8 156.54-30.48 159.34-36.15 164.27-39.28 169.19-42.4 175.29-42.4L175.29-42.4Q181.14-42.4 184.07-39.68 186.99-36.95 186.99-32.45L186.99-32.45Q186.99-29.5 185.92-27.73 184.84-25.95 182.84-25.95L182.84-25.95Q181.49-25.95 180.67-26.6 179.84-27.25 179.84-28.4L179.84-28.4Q179.84-28.9 180.04-30.1L180.04-30.1Q180.34-31.5 180.34-32.3L180.34-32.3Q180.34-34.4 179.07-35.55 177.79-36.7 174.79-36.7L174.79-36.7Q171.14-36.7 168.02-34.6 164.89-32.5 162.99-28.33 161.09-24.15 161.09-18.3L161.09-18.3Q161.09-12.3 164.37-9.03 167.64-5.75 173.84-5.75L173.84-5.75Q177.29-5.75 181.04-7.3L181.04-7.3 181.74-13.4 176.64-13.4Q175.24-13.4 174.49-14.08 173.74-14.75 173.74-16.3L173.74-16.3Q173.74-17.7 174.49-18.5 175.24-19.3 176.49-19.3L176.49-19.3 185.84-19.3Q186.94-19.3 187.67-18.57 188.39-17.85 188.24-16.5L188.24-16.5Q188.09-14.9 187.24-9.25L187.24-9.25 186.69-5.45Q190.69-8.45 193.99-10.65L193.99-10.65Q194.64-11.05 195.14-11.05L195.14-11.05ZM173.34 17.9Q174.64 17.9 176.19 14.95 177.74 12 179.09 5.45L179.09 5.45Q175.29 8.7 173.62 11.33 171.94 13.95 171.94 15.95L171.94 15.95Q171.94 17.9 173.34 17.9L173.34 17.9ZM240.14-11.15Q240.79-11.15 241.16-10.55 241.54-9.95 241.54-8.9L241.54-8.9Q241.54-6.95 240.59-5.8L240.59-5.8Q238.19-2.9 235.74-1.33 233.29 0.25 229.94 0.25L229.94 0.25Q226.69 0.25 224.41-1.5 222.14-3.25 220.09-7.5L220.09-7.5Q218.44-10.9 217.49-12.53 216.54-14.15 215.61-14.85 214.69-15.55 213.34-15.7L213.34-15.7Q213.14-14.65 212.19-9.1L212.19-9.1Q211.79-6.6 211.69-6.05L211.69-6.05Q211.19-3 209.69-1.38 208.19 0.25 205.14 0.25L205.14 0.25Q201.79 0.25 199.21-1.73 196.64-3.7 195.24-7.23 193.84-10.75 193.84-15.25L193.84-15.25Q193.84-23.65 196.76-29.75 199.69-35.85 204.96-39.08 210.24-42.3 217.14-42.3L217.14-42.3Q221.94-42.3 225.19-40.85 228.44-39.4 230.01-36.85 231.59-34.3 231.59-31.1L231.59-31.1Q231.59-28.3 230.26-25.63 228.94-22.95 226.29-20.9 223.64-18.85 219.84-17.85L219.84-17.85Q222.24-17.2 223.54-15.75 224.84-14.3 226.14-11.5L226.14-11.5Q227.54-8.5 228.91-7.1 230.29-5.7 232.09-5.7L232.09-5.7Q233.69-5.7 235.14-6.78 236.59-7.85 238.79-10.45L238.79-10.45Q239.39-11.15 240.14-11.15L240.14-11.15ZM205.09-8.25L206.44-15.75Q204.74-15.75 204.11-16.55 203.49-17.35 203.49-18.35L203.49-18.35Q203.49-19.55 204.26-20.25 205.04-20.95 206.04-20.95L206.04-20.95 207.29-20.95Q208.09-25.85 208.79-29.4L208.79-29.4Q209.44-32.65 212.99-32.65L212.99-32.65Q215.84-32.65 215.84-30.1L215.84-30.1Q215.84-29.55 215.79-29.25L215.79-29.25 214.29-20.95Q216.99-21.1 219.21-22.25 221.44-23.4 222.76-25.45 224.09-27.5 224.09-30.1L224.09-30.1Q224.09-33.25 221.94-35.05 219.79-36.85 215.64-36.85L215.64-36.85Q210.74-36.85 207.06-34.43 203.39-32 201.34-27.23 199.29-22.45 199.29-15.6L199.29-15.6Q199.29-12.4 199.94-10.1 200.59-7.8 201.54-6.65 202.49-5.5 203.34-5.5L203.34-5.5Q203.99-5.5 204.41-6.15 204.84-6.8 205.09-8.25L205.09-8.25ZM250.09 0.25Q246.64 0.25 243.86-1.45 241.09-3.15 239.49-6.38 237.89-9.6 237.89-14L237.89-14Q237.89-21.6 241.14-28.08 244.39-34.55 250.74-38.48 257.09-42.4 265.99-42.4L265.99-42.4Q268.29-42.4 270.91-42.05 273.54-41.7 275.69-41L275.69-41Q277.09-40.6 277.09-39L277.09-39Q277.09-37.7 276.11-36.55 275.14-35.4 273.84-35.4L273.84-35.4Q273.44-35.4 273.24-35.45L273.24-35.45Q270.64-36.05 268.79-36.33 266.94-36.6 264.89-36.6L264.89-36.6Q258.54-36.6 254.09-33.52 249.64-30.45 247.44-25.4 245.24-20.35 245.24-14.5L245.24-14.5Q245.24-10.25 246.91-7.93 248.59-5.6 251.29-5.6L251.29-5.6Q254.34-5.6 256.64-8.1 258.94-10.6 260.84-16.2 262.74-21.8 264.59-31.4L264.59-31.4Q264.89-32.8 265.79-33.3 266.69-33.8 268.19-33.8L268.19-33.8Q271.74-33.8 271.74-31.5L271.74-31.5Q271.74-31.1 271.59-30.5L271.59-30.5Q270.29-25.65 269.21-19.78 268.14-13.9 268.14-10.85L268.14-10.85Q268.14-8.15 268.94-6.93 269.74-5.7 271.39-5.7L271.39-5.7Q272.99-5.7 274.44-6.78 275.89-7.85 278.09-10.45L278.09-10.45Q278.69-11.15 279.44-11.15L279.44-11.15Q280.09-11.15 280.46-10.55 280.84-9.95 280.84-8.9L280.84-8.9Q280.84-6.95 279.89-5.8L279.89-5.8Q277.44-2.85 275.09-1.3 272.74 0.25 269.34 0.25L269.34 0.25Q265.84 0.25 263.69-1.78 261.54-3.8 260.99-7.5L260.99-7.5Q257.29 0.25 250.09 0.25L250.09 0.25ZM285.98 0.25Q284.13 0.25 283.33-0.58 282.53-1.4 282.53-3.7L282.53-3.7Q282.53-5.25 282.86-7.68 283.18-10.1 283.93-14.35L283.93-14.35Q285.23-22.2 285.98-27.95L285.98-27.95Q286.43-31.55 286.43-33.95L286.43-33.95Q286.43-36.2 284.78-36.2L284.78-36.2Q283.48-36.2 281.66-34.88 279.83-33.55 277.63-30.65L277.63-30.65Q276.93-29.7 276.08-29.7L276.08-29.7Q275.38-29.7 274.86-30.38 274.33-31.05 274.33-31.9L274.33-31.9Q274.33-32.7 274.66-33.52 274.98-34.35 275.73-35.4L275.73-35.4Q278.13-38.75 281.08-40.58 284.03-42.4 286.98-42.4L286.98-42.4Q289.73-42.4 291.21-40.65 292.68-38.9 292.68-35.55L292.68-35.55Q292.68-34.2 292.43-32.38 292.18-30.55 291.98-29.4 291.78-28.25 291.68-27.8L291.68-27.8Q294.53-35.95 298.08-39.18 301.63-42.4 305.88-42.4L305.88-42.4Q309.13-42.4 311.01-40.1 312.88-37.8 312.88-33.6L312.88-33.6Q312.88-31.95 312.43-29.5L312.43-29.5Q314.93-36.4 318.28-39.4 321.63-42.4 325.98-42.4L325.98-42.4Q329.48-42.4 331.36-40.15 333.23-37.9 333.23-33.85L333.23-33.85Q333.23-31.65 332.58-28.5L332.58-28.5 329.53-14.2Q329.03-11.7 329.03-9.9L329.03-9.9Q329.03-7.8 330.01-6.75 330.98-5.7 332.73-5.7L332.73-5.7Q334.38-5.7 335.96-6.8 337.53-7.9 339.68-10.45L339.68-10.45Q340.28-11.15 341.03-11.15L341.03-11.15Q341.68-11.15 342.06-10.55 342.43-9.95 342.43-8.9L342.43-8.9Q342.43-6.95 341.48-5.8L341.48-5.8Q338.88-2.65 336.33-1.2 333.78 0.25 330.98 0.25L330.98 0.25Q326.73 0.25 324.33-2.27 321.93-4.8 321.93-9.05L321.93-9.05Q321.93-12 323.13-17.6L323.13-17.6 325.13-26.75Q325.23-27.2 325.48-28.35 325.73-29.5 325.88-30.53 326.03-31.55 326.03-32.55L326.03-32.55Q326.03-34.3 325.36-35.18 324.68-36.05 323.43-36.05L323.43-36.05Q321.08-36.05 318.51-33.02 315.93-30 313.61-23 311.28-16 309.83-4.8L309.83-4.8Q309.48-1.8 308.61-0.78 307.73 0.25 305.78 0.25L305.78 0.25Q304.08 0.25 303.31-0.55 302.53-1.35 302.53-3.55L302.53-3.55Q302.53-5.6 303.08-8.93 303.63-12.25 304.48-16.75L304.48-16.75Q306.78-28.85 306.78-32.35L306.78-32.35Q306.78-34.25 306.06-35.15 305.33-36.05 303.88-36.05L303.88-36.05Q301.43-36.05 298.83-33.27 296.23-30.5 293.76-23.43 291.28-16.35 289.63-4.3L289.63-4.3Q289.28-1.75 288.61-0.75 287.93 0.25 285.98 0.25L285.98 0.25Z" opacity="1" transform="matrix(1,0,0,1,0,0)" fill="#124948" class="undefined-text-0" data-fill-palette-color="primary" id="text-0"></path>                        </svg>                      </g>                    </svg>                  </g>                </svg>              </g>            </svg>          </g>          <g></g>        </svg>      </g>    </svg>    <rect width="395.52" height="75.81332941349405" fill="transparent" stroke="transparent"></rect>  </g></svg>