<svg xmlns="http://www.w3.org/2000/svg" xmlns:xlink="http://www.w3.org/1999/xlink" xmlns:svgjs="http://svgjs.com/svgjs" id="SvgjsSvg7297" version="1.1" style="width: 100%; height: 100%;" viewBox="0 0.63 550 343.75"><defs id="SvgjsDefs7298"/><svg xmlns="http://www.w3.org/2000/svg" xmlns:xlink="http://www.w3.org/1999/xlink" xmlns:svgjs="http://svgjs.com/svgjs" version="1.1" viewBox="0 0 640 400" data-background-color="#ffffff" preserveAspectRatio="xMidYMid meet" height="400" width="550" x="0" y="-27.5"><rect width="640" height="400" x="0" y="0" opacity="1" fill="#ffffff" data-fill-palette-color="background" id="background"/><g id="tight-bounds" transform="matrix(1,0,0,1,122.24000000000001,146.5752179008681)"><svg viewBox="0 0 395.52 106.84956419826383" height="106.84956419826383" width="395.52"><g><svg viewBox="0 0 583.6481349726432 157.6723019492223" height="106.84956419826383" width="395.52"><g transform="matrix(1,0,0,1,188.12813497264318,46.58400227734744)"><svg viewBox="0 0 395.52 64.50429739452741" height="64.50429739452741" width="395.52"><g><svg viewBox="0 0 395.52 64.50429739452741" height="64.50429739452741" width="395.52"><g><svg viewBox="0 0 395.52 64.50429739452741" height="64.50429739452741" width="395.52"><g transform="matrix(1,0,0,1,0,0)"><svg width="395.52" viewBox="3.83 -36.04 224.61999999999998 36.53" height="64.50429739452741" data-palette-color="#124948"><g class="undefined-text-0" data-fill-palette-color="primary" id="text-0" fill="#1e55b3"><path d="M15.48-13.92L8.3-13.92 8.3 0 3.83 0 3.83-35.55 15.16-35.55Q20.12-35.55 22.95-32.58 25.78-29.61 25.78-24.68L25.78-24.68Q25.78-19.56 23.08-16.78 20.39-14.01 15.48-13.92L15.48-13.92ZM8.3-31.69L8.3-17.75 15.16-17.75Q18.14-17.75 19.73-19.53 21.31-21.31 21.31-24.63L21.31-24.63Q21.31-27.83 19.68-29.76 18.04-31.69 15.19-31.69L15.19-31.69 8.3-31.69ZM54.66-21.12L54.66-14.65Q54.66-7.37 51.56-3.44 48.46 0.49 42.75 0.49L42.75 0.49Q37.25 0.49 34.07-3.33 30.88-7.15 30.76-14.14L30.76-14.14 30.76-20.83Q30.76-27.95 33.91-31.99 37.06-36.04 42.7-36.04L42.7-36.04Q48.31-36.04 51.45-32.17 54.59-28.3 54.66-21.12L54.66-21.12ZM50.19-14.21L50.19-20.87Q50.19-26.51 48.35-29.26 46.51-32.01 42.7-32.01L42.7-32.01Q39.01-32.01 37.12-29.22 35.23-26.44 35.2-21.02L35.2-21.02 35.2-14.65Q35.2-9.2 37.09-6.35 38.99-3.49 42.75-3.49 46.51-3.49 48.31-6.13 50.12-8.76 50.19-14.21L50.19-14.21ZM77.09-8.98L77.09-8.98Q77.09-11.65 75.65-13.06 74.21-14.48 70.45-15.82 66.69-17.16 64.7-18.64 62.71-20.12 61.73-22.01 60.74-23.9 60.74-26.34L60.74-26.34Q60.74-30.57 63.56-33.3 66.38-36.04 70.94-36.04L70.94-36.04Q74.07-36.04 76.51-34.63 78.95-33.23 80.27-30.74 81.59-28.25 81.59-25.27L81.59-25.27 77.09-25.27Q77.09-28.56 75.51-30.37 73.92-32.18 70.94-32.18L70.94-32.18Q68.23-32.18 66.74-30.66 65.25-29.15 65.25-26.42L65.25-26.42Q65.25-24.17 66.87-22.66 68.48-21.14 71.85-19.95L71.85-19.95Q77.09-18.21 79.35-15.67 81.61-13.13 81.61-9.03L81.61-9.03Q81.61-4.71 78.8-2.11 76 0.49 71.16 0.49L71.16 0.49Q68.06 0.49 65.44-0.87 62.81-2.22 61.31-4.68 59.81-7.13 59.81-10.3L59.81-10.3 64.3-10.3Q64.3-7.01 66.14-5.18 67.99-3.34 71.16-3.34L71.16-3.34Q74.12-3.34 75.61-4.86 77.09-6.37 77.09-8.98ZM108.24-35.55L108.24-31.69 98.89-31.69 98.89 0 94.43 0 94.43-31.69 85.1-31.69 85.1-35.55 108.24-35.55ZM135.73-17.7L135.73-4.42 134.95-3.44Q131.58 0.49 125.09 0.49L125.09 0.49Q119.33 0.49 116.04-3.33 112.76-7.15 112.69-14.14L112.69-14.14 112.69-21.12Q112.69-28.59 115.68-32.31 118.67-36.04 124.62-36.04L124.62-36.04Q129.7-36.04 132.57-33.2 135.44-30.37 135.73-25.12L135.73-25.12 131.26-25.12Q131-28.44 129.42-30.31 127.85-32.18 124.65-32.18L124.65-32.18Q120.82-32.18 119.03-29.68 117.25-27.17 117.18-21.68L117.18-21.68 117.18-14.43Q117.18-9.06 119.23-6.19 121.28-3.32 125.11-3.32L125.11-3.32Q128.73-3.32 130.61-5.08L130.61-5.08 131.26-5.69 131.26-13.89 124.77-13.89 124.77-17.7 135.73-17.7ZM160.09 0L153.77-14.38 147.52-14.38 147.52 0 143.03 0 143.03-35.55 152.99-35.55Q158.22-35.55 160.9-32.82 163.59-30.1 163.59-24.85L163.59-24.85Q163.59-21.56 162.13-19.1 160.68-16.65 158.02-15.41L158.02-15.41 164.9-0.29 164.9 0 160.09 0ZM147.52-31.69L147.52-18.21 152.94-18.21Q155.75-18.21 157.42-20.02 159.09-21.83 159.09-24.85L159.09-24.85Q159.09-31.69 152.89-31.69L152.89-31.69 147.52-31.69ZM188.95 0L186.14-9.28 174.13-9.28 171.37 0 166.78 0 178.23-35.55 182.07-35.55 193.54 0 188.95 0ZM180.14-29.3L175.3-13.13 184.99-13.13 180.14-29.3ZM198.37-35.55L204.13-35.55 213.41-6.54 222.69-35.55 228.45-35.55 228.45 0 223.98 0 223.98-13.84 224.4-27.71 215.09 0 211.68 0 202.42-27.61 202.84-13.84 202.84 0 198.37 0 198.37-35.55Z" fill="#1e55b3" data-fill-palette-color="primary"/></g></svg></g></svg></g></svg></g></svg></g><g><svg viewBox="0 0 157.6723019492223 157.6723019492223" height="157.6723019492223" width="157.6723019492223"><g><svg xmlns="http://www.w3.org/2000/svg" xmlns:xlink="http://www.w3.org/1999/xlink" xmlns:svgjs="http://svgjs.com/svgjs" version="1.1"/></g><g id="icon-0"><svg viewBox="0 0 157.6723019492223 157.6723019492223" height="157.6723019492223" width="157.6723019492223"><g><path d="M0 78.836c0-43.54 35.296-78.836 78.836-78.836 43.54 0 78.836 35.296 78.836 78.836 0 43.54-35.296 78.836-78.836 78.836-43.54 0-78.836-35.296-78.836-78.836zM78.836 152.596c40.737 0 73.76-33.024 73.76-73.76 0-40.737-33.024-73.76-73.76-73.76-40.737 0-73.76 33.024-73.76 73.76 0 40.737 33.024 73.76 73.76 73.76z" data-fill-palette-color="accent" fill="#ff585f" stroke="transparent"/></g><g transform="matrix(1,0,0,1,32.65032814512582,44.36138474310522)"><svg viewBox="0 0 92.37164565897065 68.94953246301185" height="68.94953246301185" width="92.37164565897065"><g><svg xmlns="http://www.w3.org/2000/svg" xmlns:xlink="http://www.w3.org/1999/xlink" version="1.1" x="0" y="0" viewBox="96.386 43.865 1009.643 753.6339999999999" enable-background="new 0 0 1187.72 841.89" xml:space="preserve" height="68.94953246301185" width="92.37164565897065" class="icon-symbol-0" fill="#ff585f" data-fill-palette-color="accent" id="symbol-0"><path d="M1106.029 183.51V43.865H869.565v28.961V183.51v90.295H96.386v10.639c0 132.463 36.127 254.372 101.728 343.27 38.932 52.758 88.006 93.921 145.857 122.347 64.065 31.478 139.299 47.438 223.612 47.438 84.313 0 159.547-15.961 223.611-47.438 57.851-28.426 106.924-69.589 145.855-122.347 65.598-88.896 101.725-210.805 101.725-343.27v-10.639H922.707V183.51H1106.029zM215.234 615.079c-59.947-81.237-94.212-191.667-97.318-312.576l292.789 159.699L245.551 651.41C234.829 640.036 224.713 627.924 215.234 615.079zM781.812 730.963c-61.12 30.031-133.196 45.258-214.229 45.258s-153.109-15.227-214.229-45.258c-34.269-16.838-65.29-38.408-92.749-64.443l169.233-193.881 137.744 75.131 137.74-75.13L874.56 666.519C847.102 692.555 816.08 714.125 781.812 730.963zM919.929 615.079c-9.478 12.845-19.593 24.957-30.314 36.33L724.456 462.203l292.788-159.7C1014.138 423.413 979.874 533.844 919.929 615.079zM567.583 523.533L148.747 295.082h837.667L567.583 523.533z" fill="#ff585f" data-fill-palette-color="accent"/></svg></g></svg></g></svg></g></svg></g></svg></g></svg><rect width="395.52" height="106.84956419826383" fill="transparent" stroke="transparent"/></g><defs/></svg></svg>